<svg xmlns="http://www.w3.org/2000/svg" width="1600" height="900" viewBox="0 0 1600 900"><defs><linearGradient id="b" x1="0" x2="1"><stop stop-color="#06111f"/><stop offset="1" stop-color="#0a2443"/></linearGradient></defs><rect width="1600" height="900" fill="url(#b)"/><g font-family="Arial"><text x="90" y="130" fill="#f4f8ff" font-size="70" font-weight="700">Current iOS 27 jailbreak status</text><text x="92" y="184" fill="#9eb6d3" font-size="30">What is confirmed today</text></g><g font-family="Arial"><g transform="translate(90 285)"><rect width="940" height="130" rx="26" fill="#0a1b31" stroke="#274e78"/><rect x="28" y="26" width="78" height="78" rx="16" fill="#3b1723"/><path d="M49 65h37v28H49zM56 65V52c0-22 23-22 23 0v13" fill="none" stroke="#ff6b7a" stroke-width="6"/><text x="145" y="78" fill="#f2f7ff" font-size="34">No general public iOS 27 jailbreak</text><rect x="720" y="36" width="184" height="56" rx="28" fill="#351824" stroke="#8e4050"/><text x="812" y="72" text-anchor="middle" fill="#ff7d89" font-size="21" letter-spacing="2">NOT AVAILABLE</text></g><g transform="translate(90 435)"><rect width="940" height="130" rx="26" fill="#0a1b31" stroke="#274e78"/><rect x="28" y="26" width="78" height="78" rx="16" fill="#3b1723"/><rect x="49" y="48" width="37" height="37" rx="6" fill="none" stroke="#ff6b7a" stroke-width="6"/><g stroke="#ff6b7a" stroke-width="5"><path d="M58 38v10M77 38v10M58 85v10M77 85v10M39 58h10M39 77h10M86 58h10M86 77h10"/></g><text x="145" y="78" fill="#f2f7ff" font-size="34">No public modern-device kernel exploit chain</text><rect x="720" y="36" width="184" height="56" rx="28" fill="#351824" stroke="#8e4050"/><text x="812" y="72" text-anchor="middle" fill="#ff7d89" font-size="21" letter-spacing="2">NOT AVAILABLE</text></g><g transform="translate(90 585)"><rect width="940" height="130" rx="26" fill="#0a1b31" stroke="#274e78"/><rect x="28" y="26" width="78" height="78" rx="16" fill="#123258"/><path d="M55 42h24M61 42v23l-17 28h46L73 65V42" fill="none" stroke="#69b5ff" stroke-width="6"/><text x="145" y="78" fill="#f2f7ff" font-size="34">A13 / iPhone 11 Pro research demo exists</text><rect x="720" y="36" width="184" height="56" rx="28" fill="#11375d" stroke="#2d6da8"/><text x="812" y="72" text-anchor="middle" fill="#72bbff" font-size="21" letter-spacing="2">RESEARCH ONLY</text></g></g><g transform="translate(1110 235)"><rect width="350" height="515" rx="55" fill="#050a11" stroke="#5aa7ff" stroke-width="5"/><rect x="17" y="17" width="316" height="481" rx="43" fill="#07162e"/><path d="M50 95c125 18 190 120 235 260-80-90-170-115-235-45 90 30 150 95 205 170-110-72-195-50-230 4 45-160 40-290 25-389z" fill="#2678e8" opacity=".72"/><rect x="106" y="28" width="138" height="32" rx="16" fill="#010307"/></g><text x="92" y="805" fill="#829bb8" font-family="Arial" font-size="24">Status can change as new exploit chains and jailbreak tools are disclosed.</text></svg>